# xmcd CD database file generated by Grip 3.2.0
# 
# Track frame offsets:
#       150
#       22143
#       38632
#       53248
#       72034
#       90389
#       103093
#       119486
#       138263
#       159420
#       178296
#       194914
#       208095
# 
# Disc length: 3064 seconds
# 
# Revision: 1
# Processed by: cddbd v1.5.2PL0 Copyright (c) Steve Scherf et al.
# Submitted via: Grip 3.2.0
# 
DISCID=be0bf60d
DTITLE=Aaron Cici - Blues
DYEAR=1994
DGENRE=Blues
TTITLE0=Please don't leave me
TTITLE1=Novie
TTITLE2=Hello Baby
TTITLE3=Thank you mother
TTITLE4=My heart
TTITLE5=Wiesbaden
TTITLE6=Don't Cry Baby
TTITLE7=Nobody knows the trouble I've seen
TTITLE8=When the saints go marching in
TTITLE9=This is my love
TTITLE10=Ramona
TTITLE11=Let days speak
TTITLE12=Please don't leave me
EXTD=
EXTT0=
EXTT1=
EXTT2=
EXTT3=
EXTT4=
EXTT5=
EXTT6=
EXTT7=
EXTT8=
EXTT9=
EXTT10=
EXTT11=
EXTT12=
PLAYORDER=
